<svg xmlns="http://www.w3.org/2000/svg" xml:space="preserve" fill-rule="evenodd" stroke-linejoin="round" stroke-miterlimit="2" clip-rule="evenodd" viewBox="0 0 384 402"><path fill="url(#a)" d="M319 117.545v177c0 55.192-44.808 100-100 100H100c-55.192 0-100-44.808-100-100v-177c0-55.192 44.808-100 100-100h119c55.192 0 100 44.808 100 100z"/><path fill="url(#b)" d="M379.823 156.701 334.012 327.67c-14.285 53.311-69.164 84.995-122.474 70.711L96.593 367.582c-53.311-14.285-84.995-69.164-70.711-122.474L71.693 74.139c14.285-53.311 69.164-84.995 122.474-70.711l114.945 30.799c53.311 14.285 84.995 69.164 70.711 122.474z"/><path fill="#db5400" d="M105.407 207.933c-.004-.01-.005.001-.005.001-8.731 1.314-16.887-4.608-18.217-13.225-1.329-8.611 4.659-16.656 13.379-17.978l.022-.003.162-.026a122.477 122.477 0 0 0 3.955-.726c2.766-.552 6.68-1.416 11.169-2.642 9.222-2.517 19.842-6.289 28.021-11.414 8.913-5.586 14.149-11.093 20.326-17.807 6.339-6.89 13.765-15.183 26.078-23.47 14.094-9.485 32.659-12.532 45.667-13.622a181.727 181.727 0 0 1 17.338-.602c2.202.029 3.998.093 5.273.153a99.508 99.508 0 0 1 1.954.11l.137.008.047.005.018.001h.007l.006.001c8.807.655 15.407 8.233 14.743 16.925-.664 8.687-8.33 15.198-17.129 14.553h-.013l-.015-.002-.223-.014a62.571 62.571 0 0 0-1.048-.056c-.95-.045-2.38-.097-4.18-.12-3.619-.048-8.637.025-14.21.492-11.848.993-23.401 3.569-30.356 8.249-8.849 5.956-14.032 11.668-20.419 18.61-6.547 7.117-14.151 15.27-26.859 23.235-12.071 7.565-26.187 12.337-36.638 15.191a200.04 200.04 0 0 1-13.351 3.156c-1.677.335-3.035.581-3.999.748-.483.083-.868.147-1.145.192l-.334.053-.105.016-.036.006-.014.002h-.006zm20.301 42.512a.02.02 0 0 0-.005.001c-8.735 1.287-16.872-4.659-18.176-13.28-1.303-8.617 4.712-16.645 13.438-17.939l.016-.002.162-.025c.16-.025.421-.067.774-.127.707-.121 1.781-.312 3.15-.582 2.746-.54 6.631-1.387 11.086-2.592 9.157-2.476 19.682-6.193 27.768-11.258 8.817-5.522 13.988-10.975 20.106-17.649 6.279-6.849 13.652-15.115 25.896-23.355 14.039-9.448 32.545-12.423 45.481-13.464a180.69 180.69 0 0 1 17.257-.54c2.192.037 3.981.108 5.251.172a97.45 97.45 0 0 1 1.506.087c.183.011.33.022.439.03l.137.01.047.003.017.002h.008a.032.032 0 0 0 .007.001c8.803.688 15.374 8.291 14.677 16.98-.697 8.688-8.396 15.173-17.197 14.487h-.015l-.222-.015a78.376 78.376 0 0 0-1.04-.059c-.944-.048-2.365-.105-4.155-.135a147.78 147.78 0 0 0-14.119.439c-11.783.948-23.217 3.476-30.063 8.083-8.753 5.891-13.871 11.551-20.2 18.454-6.489 7.079-14.04 15.204-26.682 23.123-12.01 7.522-26.06 12.239-36.452 15.049a197.181 197.181 0 0 1-13.282 3.104 153.733 153.733 0 0 1-5.121.921l-.333.051-.105.017-.05.007-.006.001zm176.117-25.982-.028-.002-.223-.015a75.941 75.941 0 0 0-1.048-.056c-.951-.044-2.38-.097-4.18-.12-3.619-.047-8.637.025-14.21.492-11.848.993-23.401 3.569-30.356 8.25-8.849 5.955-14.032 11.667-20.419 18.609-6.547 7.117-14.151 15.27-26.859 23.235-12.072 7.566-26.187 12.338-36.639 15.191a199.408 199.408 0 0 1-13.35 3.156 154.576 154.576 0 0 1-5.144.94l-.334.053-.105.016-.036.006-.014.002h-.006c-.005-.011-.006.002-.006.002-8.73 1.313-16.886-4.608-18.217-13.226-1.329-8.611 4.66-16.655 13.38-17.978l.021-.003.163-.026c.161-.026.424-.069.78-.13.713-.124 1.796-.32 3.174-.596a167.358 167.358 0 0 0 11.17-2.641c9.222-2.518 19.842-6.289 28.021-11.415 8.912-5.586 14.149-11.092 20.326-17.807 6.338-6.89 13.765-15.183 26.078-23.469 14.093-9.485 32.658-12.533 45.667-13.623a181.717 181.717 0 0 1 17.337-.602c2.203.029 3.999.094 5.274.153a115.63 115.63 0 0 1 1.954.11l.136.009.047.004.019.001.007.001h.006c8.806.655 15.407 8.233 14.743 16.926-.664 8.686-8.33 15.199-17.129 14.553z"/><defs><linearGradient id="a" x1="0" x2="1" y1="0" y2="0" gradientTransform="matrix(0 377 -377 0 159.5 17.545)" gradientUnits="userSpaceOnUse"><stop offset="0" stop-color="#ffdbc4"/><stop offset="1" stop-color="#ffebdf"/></linearGradient><linearGradient id="b" x1="0" x2="1" y1="0" y2="0" gradientTransform="rotate(105 118.597 105.958) scale(377)" gradientUnits="userSpaceOnUse"><stop offset="0" stop-color="#ff7017"/><stop offset="1" stop-color="#ff8b42"/></linearGradient></defs></svg>
