<svg width="512" height="503" viewBox="0 0 512 503" fill="none" xmlns="http://www.w3.org/2000/svg">
<path fill-rule="evenodd" clip-rule="evenodd" d="M210.637 73.4496C233.458 43.5137 278.542 43.5137 301.363 73.4496C318.545 95.9882 345.482 108.952 373.83 108.322C411.483 107.485 439.591 142.703 430.397 179.196C423.474 206.671 430.127 235.798 448.294 257.55C472.425 286.443 462.393 330.36 428.106 345.93C402.292 357.652 383.651 381.011 377.957 408.766C370.395 445.631 329.777 465.177 296.216 448.099C270.95 435.242 241.051 435.242 215.784 448.099C182.224 465.177 141.605 445.631 134.043 408.766C128.35 381.011 109.709 357.652 83.8945 345.93C49.6075 330.361 39.5756 286.443 63.7062 257.55C81.8734 235.798 88.5263 206.671 81.6036 179.196C72.4089 142.703 100.518 107.485 138.17 108.322C166.518 108.952 193.456 95.9881 210.637 73.4496ZM362.479 260.08C357.461 260.015 350.488 260.111 342.645 260.767C327.764 262.012 306.526 265.492 290.403 276.323C276.318 285.785 267.822 295.255 260.571 303.122C253.505 310.79 247.514 317.078 237.317 323.456C227.962 329.309 215.813 333.617 205.264 336.492C200.128 337.891 195.65 338.877 192.485 339.508C190.909 339.823 189.671 340.047 188.855 340.188C188.448 340.258 188.146 340.306 187.962 340.336C187.87 340.351 187.807 340.36 187.775 340.365L187.751 340.37C177.776 341.88 170.925 351.066 172.445 360.898C173.967 370.739 183.299 377.5 193.286 376.001L190.529 358.184C193.204 375.478 193.287 375.985 193.292 375.999H193.298C193.303 375.998 193.308 375.998 193.314 375.998C193.325 375.996 193.34 375.992 193.355 375.99C193.387 375.985 193.428 375.979 193.476 375.971C193.572 375.956 193.7 375.937 193.858 375.911C194.175 375.86 194.615 375.788 195.167 375.692C196.269 375.502 197.824 375.221 199.742 374.838C203.569 374.075 208.899 372.901 215.016 371.234C226.971 367.976 243.12 362.527 256.929 353.888C271.467 344.793 280.164 335.482 287.654 327.355C294.96 319.428 300.89 312.906 311.013 306.105C318.969 300.76 332.186 297.819 345.74 296.685C352.115 296.152 357.856 296.068 361.996 296.122C364.054 296.149 365.69 296.209 366.777 296.259C367.32 296.285 367.726 296.309 367.976 296.324C368.1 296.332 368.186 296.338 368.232 296.341H368.256C368.26 296.341 368.264 296.343 368.264 296.343H368.269L368.259 296.341C378.326 297.08 387.099 289.645 387.859 279.725C388.618 269.799 381.067 261.146 370.993 260.397L369.642 278.071C370.994 260.397 370.989 260.396 370.986 260.396H370.978C370.972 260.395 370.964 260.395 370.956 260.394C370.941 260.393 370.923 260.391 370.902 260.39C370.861 260.387 370.81 260.385 370.748 260.38C370.622 260.372 370.451 260.359 370.242 260.347C369.823 260.321 369.24 260.288 368.511 260.254C367.053 260.186 364.998 260.113 362.479 260.08ZM334.901 210.895C329.905 210.812 322.964 210.884 315.158 211.511C300.361 212.7 279.191 216.097 263.131 226.886C249.124 236.296 240.688 245.734 233.505 253.555C226.507 261.175 220.591 267.403 210.506 273.708C201.255 279.492 189.215 283.737 178.739 286.565C173.643 287.941 169.198 288.907 166.057 289.524C164.492 289.832 163.263 290.05 162.454 290.187C162.05 290.256 161.751 290.305 161.569 290.334C161.478 290.348 161.415 290.357 161.384 290.362L161.365 290.365H161.373C151.387 291.839 144.501 301.007 145.992 310.848C147.483 320.693 156.793 327.483 166.785 326.014L164.083 308.188C166.784 326.013 166.788 326.013 166.791 326.012L166.797 326.011L166.856 326.003C166.887 325.998 166.927 325.992 166.974 325.985C167.07 325.97 167.198 325.949 167.356 325.924C167.671 325.875 168.11 325.805 168.659 325.712C169.757 325.525 171.305 325.25 173.213 324.875C177.021 324.126 182.323 322.972 188.408 321.329C200.297 318.12 216.369 312.734 230.108 304.144C244.57 295.103 253.208 285.824 260.631 277.741C267.871 269.859 273.727 263.395 283.74 256.669C291.572 251.407 304.652 248.521 318.131 247.438C324.464 246.929 330.168 246.869 334.284 246.937C336.33 246.971 337.956 247.037 339.037 247.091C339.576 247.118 339.978 247.141 340.226 247.157C340.35 247.165 340.436 247.171 340.481 247.174C340.487 247.175 340.492 247.176 340.496 247.176C350.565 247.959 359.371 240.553 360.169 230.632C360.967 220.71 353.45 212.029 343.38 211.243L341.98 228.634C343.379 211.242 343.376 211.242 343.372 211.241H343.363C343.357 211.241 343.35 211.24 343.343 211.24C343.328 211.239 343.31 211.237 343.29 211.235C343.249 211.232 343.196 211.229 343.133 211.224C343.007 211.216 342.84 211.203 342.631 211.189C342.214 211.162 341.633 211.127 340.907 211.09C339.455 211.017 337.409 210.936 334.901 210.895ZM312.755 161.547C307.736 161.482 300.762 161.579 292.92 162.235C278.039 163.48 256.801 166.96 240.679 177.79C226.594 187.253 218.098 196.724 210.847 204.591C203.78 212.259 197.789 218.547 187.593 224.926C178.237 230.778 166.087 235.084 155.538 237.959C150.403 239.358 145.926 240.345 142.761 240.976C141.184 241.29 139.945 241.515 139.129 241.656C138.723 241.726 138.422 241.776 138.238 241.805C138.146 241.82 138.083 241.829 138.051 241.834L138.026 241.838C128.051 243.348 121.2 252.535 122.721 262.368C124.243 272.207 133.573 278.968 143.56 277.468L140.805 259.651C143.485 276.975 143.561 277.455 143.566 277.468L143.574 277.467C143.579 277.466 143.584 277.466 143.59 277.465C143.601 277.463 143.615 277.46 143.631 277.457C143.663 277.453 143.704 277.446 143.752 277.439C143.847 277.424 143.976 277.404 144.134 277.379C144.451 277.328 144.891 277.255 145.442 277.16C146.545 276.97 148.1 276.688 150.018 276.306C153.845 275.543 159.173 274.369 165.29 272.702C177.246 269.444 193.394 263.994 207.203 255.355C221.741 246.26 230.44 236.951 237.93 228.824C245.236 220.897 251.166 214.373 261.289 207.573C269.245 202.228 282.462 199.286 296.016 198.152C302.39 197.619 308.13 197.537 312.27 197.591C314.329 197.618 315.965 197.678 317.053 197.728C317.596 197.754 318.002 197.776 318.251 197.792C318.375 197.799 318.461 197.806 318.506 197.809C318.512 197.809 318.518 197.81 318.523 197.81C328.594 198.556 337.375 191.116 338.134 181.193C338.894 171.267 331.343 162.614 321.269 161.865L319.918 179.539C321.231 162.383 321.264 161.88 321.261 161.865L321.254 161.863C321.247 161.863 321.239 161.862 321.232 161.862C321.217 161.861 321.199 161.859 321.178 161.857C321.137 161.854 321.085 161.852 321.022 161.848C320.896 161.84 320.727 161.828 320.518 161.816C320.099 161.79 319.516 161.757 318.787 161.723C317.329 161.655 315.274 161.58 312.755 161.547Z" fill="white" style="fill:white;fill-opacity:1;"/>
<path fill-rule="evenodd" clip-rule="evenodd" d="M189.003 33.1604C222.708 -11.0534 289.292 -11.0535 322.997 33.1604C339.325 54.5799 364.926 66.8987 391.867 66.3C447.477 65.0637 488.991 117.079 475.411 170.977C468.832 197.088 475.154 224.769 492.42 245.442C528.059 288.114 513.243 352.978 462.603 375.973C438.071 387.113 420.355 409.311 414.944 435.688C403.776 490.136 343.786 519.002 294.22 493.779C270.583 481.751 242.68 481.562 218.909 493.215L216.617 494.36C167.28 518.549 108.137 489.711 97.0557 435.688C91.6452 409.311 73.9285 387.113 49.3957 375.973C-1.24367 352.978 -16.0586 288.114 19.5806 245.442C36.8461 224.769 43.1684 197.088 36.5894 170.977C23.0092 117.08 64.5238 65.0638 120.134 66.3C147.074 66.8988 172.675 54.5798 189.003 33.1604ZM313.93 63.886C284.787 25.6562 227.213 25.6562 198.07 63.886L197.404 64.7477C183.261 82.7362 161.452 93.0494 138.522 92.5398C90.438 91.4709 54.5421 136.447 66.2841 183.05C71.9727 205.627 66.5056 229.561 51.5771 247.436L50.8628 248.306C20.9635 285.209 33.914 340.574 77.3579 360.302L78.3484 360.76C99.0467 370.534 113.962 389.484 118.568 411.935L118.801 413.034C128.953 459.036 179.623 483.419 221.947 462.668L222.953 462.166C243.716 451.6 268.285 451.6 289.047 462.166L290.053 462.668C332.713 483.584 383.851 458.646 393.432 411.935C398.038 389.484 412.954 370.534 433.652 360.76L434.642 360.302C478.428 340.419 491.239 284.334 460.423 247.436C445.728 229.841 440.2 206.373 445.457 184.109L445.716 183.05C457.458 136.447 421.562 91.4708 373.479 92.5398C350.185 93.0574 328.049 82.4062 313.93 63.886Z" fill="white" style="fill:white;fill-opacity:1;"/>
</svg>
